# xmcd
#
# Track frame offsets:
#	150
#	10660
#	22200
#	33601
#	44938
#	56055
#	68481
#	78363
#	87208
#	96496
#	111047
#	124316
#	136771
#	149090
#	160946
#	173466
#
# Disc length: 2469 seconds
#
# Revision: 1
# Processed by: cddbd v1.5.2PL0 Copyright (c) Steve Scherf et al.
# Submitted via: audiograbber 1.83.01
#
DISCID=df09a310
DTITLE=Michael Brandon - Papa Was A Fiddlin' Man
DYEAR=2009
DGENRE=Country
TTITLE0=Papa Was a Fiddiin' Man
TTITLE1=In Just a Short Little While.
TTITLE2=The Foolish Ways of A Man
TTITLE3=Don't Come Around
TTITLE4=Ice Cold Rhythm
TTITLE5=Oh Little World
TTITLE6=Dream Of Tomorrow
TTITLE7=Drinking Up The Wine
TTITLE8=Happiness Is Back With Us Again
TTITLE9=Snowtime
TTITLE10=Sad Winds Of Sorrow
TTITLE11=Mighty Fine Wine
TTITLE12=Missing You Has Only Just Begun
TTITLE13=I'll Drink Till Your Memory Is Gone
TTITLE14=Tomorrow's Coming At Me Over There
TTITLE15=When The Winter Comes Around
EXTD=
EXTT0=
EXTT1=
EXTT2=
EXTT3=
EXTT4=
EXTT5=
EXTT6=
EXTT7=
EXTT8=
EXTT9=
EXTT10=
EXTT11=
EXTT12=
EXTT13=
EXTT14=
EXTT15=
PLAYORDER=
